<svg enable-background="new 0 0 24 24" viewBox="0 0 24 24" xmlns="http://www.w3.org/2000/svg" xmlns:xlink="http://www.w3.org/1999/xlink"><mask id="a" height="21.6036" maskUnits="userSpaceOnUse" width="19.8227" x="1.9998" y="2.2964"><circle clip-rule="evenodd" cx="12" cy="12" fill="#fff" fill-rule="evenodd" r="12"/></mask><circle clip-rule="evenodd" cx="12" cy="12" fill="#f2f2f2" fill-rule="evenodd" r="12"/><g mask="url(#a)"><g clip-rule="evenodd" fill-rule="evenodd" transform="translate(2 2)"><path d="m16.3519 8.393v-2.4318h-12.8814v2.4318c0 1.3566-.5057 2.6275-1.2268 3.7762-.0983.1562-.1554.3427-.1554.5485v.0067c-.0004.3772.2247.7144.5687.8681 1.7938.7997 4.0064 1.307 6.418 1.4041.2759.0134.5548.0202.8362.0202s.5607-.0067.8362-.0202c2.4116-.097 4.6242-.6044 6.418-1.4041.344-.1537.5691-.491.5691-.8681v-.0067c0-.2058-.0575-.3923-.1558-.5485-.7211-1.1487-1.2268-2.4196-1.2268-3.7762" fill="#0064c1"/><path d="m13.6797 15.371c-.6481 0-1.1735-.5254-1.1735-1.1735v-1.4708h-5.19v1.4708c0 .6481-.5254 1.1735-1.1735 1.1735h-1.4036c-2.4969 0-4.5507 1.9501-4.7393 4.4008 0 0 6.5001 2.1283 9.7502 2.1283 3.3575 0 10.0726-2.1283 10.0726-2.1283-.1886-2.4507-2.2424-4.4008-4.7393-4.4008z" fill="#1890ff"/><path d="m14.262 19.7715-.6741-1.1899 1.2146-.8572c.2461-.1739.3373-.496.2192-.7732l-.6749-1.5805h-.6674c-.2121 0-.4078-.0605-.5796-.1583l-3.1886.5678-3.1886-.5678c-.1714.0979-.3675.1583-.5796.1583h-.667l-.6749 1.5805c-.1184.2772-.0269.5993.2192.7732l1.2142.8572-.6741 1.1899z" fill="#d6e8ff"/><path d="m13.9224 15.371h-.2428c-.6481 0-1.1735-.5254-1.1735-1.1735v-1.4708h-5.1899v1.4708c0 .6481-.525 1.1735-1.1731 1.1735h-.2431c.6703 1.7837 1.6678 3.3004 2.8883 4.4008h2.2462c1.2201-1.1005 2.218-2.6171 2.8879-4.4008" fill="#fff"/><path d="m12.5061 14.1975v-1.4708h-5.1895v1.4708c0 .3982-.1995.7484-.5027.961.8224.9068 1.906 1.4629 3.0975 1.4629s2.2747-.5561 3.0971-1.4629c-.3029-.2126-.5024-.5628-.5024-.961" fill="#dfc8b1"/><path d="m16.3519 6.3487c0 3.3428-2.8837 6.0526-6.4407 6.0526s-6.4407-2.7098-6.4407-6.0526 2.8837-6.0522 6.4407-6.0522 6.4407 2.7095 6.4407 6.0522" fill="#156cdd"/><path d="m15.7783 9.5475c0 2.3377-2.6267 3.3671-5.867 3.3671s-5.867-1.0294-5.867-3.3671c0-2.3373 2.6267-5.0988 5.867-5.0988s5.867 2.7615 5.867 5.0988" fill="#0064c1"/><path d="m15.3179 9.8429h-.2428v-3.2458h.4351c.42 0 .748.3641.7039.782l-.1928 1.8299c-.0377.3605-.3414.6339-.7034.6339" fill="#f4e3cb"/><path d="m4.5045 9.8429h.2428v-3.2458h-.4351c-.42 0-.748.3641-.7039.782l.1927 1.83c.0378.3604.3415.6338.7035.6338" fill="#f4e3cb"/><path d="m15.3907 8.952v-2.5725c0-1.8064-.9639-3.4759-2.5284-4.3793l-.4225-.244c-1.5645-.903-3.4923-.903-5.0568 0l-.4229.244c-1.5645.9034-2.5284 2.5729-2.5284 4.3793v2.5725c0 2.0147 1.0748 3.8762 2.8195 4.8833l.8102.4675c1.1449.6611 2.5549.6611 3.6998 0l.8106-.4675c1.7442-1.0071 2.8189-2.8685 2.8189-4.8833" fill="#f4e3cb"/><path d="m5.3127 6.6949c-.1743 0-.3154-.1411-.3154-.315 0-.1634.0097-.3284.0294-.4914.0206-.173.1798-.2932.3503-.2755.173.021.2965.1776.2759.3507-.0164.1378-.0252.278-.0252.4162 0 .1739-.1407.315-.315.315" fill="#dfe8f4"/><path d="m5.621 5.1929c-.0416 0-.0836-.0088-.1243-.026-.16-.0685-.2339-.2537-.1655-.4137.349-.8144.9635-1.507 1.7312-1.9496.1508-.0874.3436-.0357.4305.115.0874.1508.0353.3436-.1155.4309-.6497.3751-1.1705.9619-1.4666 1.6523-.0513.1193-.1676.1911-.2898.1911" fill="#dfe8f4"/><g fill="#0064c1"><path d="m4.0464 6.131.3969 1.987.7085-2.1567z"/><path d="m15.7882 6.131-.3969 1.987-.7085-2.1567z"/><path d="m3.4909 5.9698c1.3453.6577 3.2374 1.0697 5.3386 1.0697 3.4814 0 6.392-1.126 7.1744-2.6397-.8639-2.3852-3.2625-4.1034-6.0925-4.1034-3.4209 0-6.2114 2.5083-6.4205 5.6734"/><path d="m13.8731 1.5836c-.7993.4822-1.3352 1.3562-1.3352 2.357 0 1.5212 1.2331 2.7544 2.7544 2.7544.373 0 .7279-.0748 1.0521-.2092.0013-.0458.0076-.0907.0076-.1369 0-1.9375-.9723-3.6574-2.4789-4.7653"/></g></g></g></svg>