<svg enable-background="new 0 0 24 24" viewBox="0 0 24 24" xmlns="http://www.w3.org/2000/svg" xmlns:xlink="http://www.w3.org/1999/xlink"><mask id="a" height="23.9491" maskUnits="userSpaceOnUse" width="19.8227" x="2.0998" y="1.5509"><circle clip-rule="evenodd" cx="12" cy="12" fill="#fff" fill-rule="evenodd" r="12"/></mask><circle clip-rule="evenodd" cx="12" cy="12" fill="#f2f2f2" fill-rule="evenodd" r="12"/><g mask="url(#a)"><g clip-rule="evenodd" fill-rule="evenodd" transform="translate(2.1 1.3)"><path d="m13.6797 15.791c-.6481 0-1.1735-.5254-1.1735-1.1735v-1.4708h-5.19v1.4708c0 .6481-.5254 1.1735-1.1735 1.1735h-1.4036c-2.4969 0-4.5507 1.9501-4.7393 4.4008 0 0 6.6001 4.0083 9.9002 4.0083 3.3075 0 9.9226-4.0083 9.9226-4.0083-.1886-2.4507-2.2424-4.4008-4.7393-4.4008z" fill="#1890ff"/><path d="m9.9112 18.0583c1.2188-.5817 2.2096-1.5611 2.8081-2.7691-.1336-.1907-.2134-.4213-.2134-.6716v-1.4708h-5.1894v1.4708c0 .2503-.0798.4809-.2134.6716.5985 1.208 1.5893 2.1874 2.8081 2.7691" fill="#dfc8b1"/><path d="m10.994 16.8139c0 .3662-.4847 1.4612-1.0828 1.4612s-1.0828-1.0949-1.0828-1.4612c0-.3658.4847.1357 1.0828.1357s1.0828-.5015 1.0828-.1357" fill="#fff"/><path d="m15.9342 6.3762c0 3.1261-2.6964 5.6603-6.0228 5.6603s-6.0233-2.5342-6.0233-5.6603c0-3.1256 2.6968-5.6599 6.0232-5.6599s6.0229 2.5343 6.0229 5.6599" fill="#156cdd"/><path d="m15.3179 10.2629h-.2428v-3.2458h.4351c.42 0 .748.3641.7039.782l-.1928 1.8299c-.0377.3605-.3414.6339-.7034.6339" fill="#f4e3cb"/><path d="m4.5045 10.2629h.2428v-3.2458h-.4351c-.42 0-.748.3641-.7039.782l.1927 1.83c.0378.3604.3415.6338.7035.6338" fill="#f4e3cb"/><path d="m15.3907 9.9401v-3.1408c0-1.806-.9639-3.4759-2.5284-4.3789l-.4225-.244c-1.5645-.9034-3.4923-.9034-5.0568 0l-.4229.244c-1.5645.903-2.5284 2.5729-2.5284 4.3789v3.1408c0 1.6628.8875 3.1996 2.3276 4.0312l1.302.7518c1.1449.6611 2.5549.6611 3.6998 0l1.302-.7518c1.4406-.8317 2.3276-2.3684 2.3276-4.0312" fill="#f4e3cb"/><path d="m5.621 5.6129c-.0416 0-.0836-.0088-.1243-.026-.16-.0685-.2339-.2537-.1655-.4137.349-.8144.9635-1.507 1.7312-1.9496.1508-.0874.3436-.0357.4305.115.0874.1508.0353.3436-.1155.4309-.6497.3751-1.1705.9619-1.4666 1.6523-.0513.1193-.1676.1911-.2898.1911" fill="#dfe8f4"/><g fill="#0064c1"><path d="m4.0464 6.5731.2092 1.373c.0559.3675.4418.4158.5502.0685l.3461-1.9534z"/><path d="m15.7882 6.5731-.2092 1.373c-.0559.3675-.4418.4158-.5502.0685l-.3461-1.9534z"/><path d="m3.9992 7.1892s6.8851.1554 9.752-2.1286c.551-.4393.8849-1.0962.9253-1.7997l.0164-.2856c.0269-.4721-.1663-.9253-.5174-1.2419-1.0479-.9446-3.9976-2.3407-7.4332-.7825-4.6293 2.1-2.7431 6.2383-2.7431 6.2383"/><path d="m12.4097 5.0014s1.0828 2.0227 2.4843 2.386c.0353.0092.0706.0172.1058.0239l.9303-.2852s1.4146-4.1895-2.1903-5.1698c-3.6052-.9798-1.3301 3.0451-1.3301 3.0451"/></g><path d="m6.2328 15.7848 1.0563-.9509 2.6221 2.1025-.9996 1.2928c-.0823.1067-.2352.1239-.3373.0365-.5095-.4372-1.9123-1.6812-2.3415-2.4809" fill="#d6e8ff"/><path d="m13.5897 15.7848-1.0563-.9509-2.6221 2.1025.9996 1.2928c.0823.1067.2352.1239.3373.0365.5095-.4372 1.9123-1.6812 2.3415-2.4809" fill="#d6e8ff"/><path d="m10.6468 20.1915c-.1348-1.3721-.4129-2.3167-.7354-2.3167-.323 0-.601.9446-.7358 2.3167z" fill="#fff"/></g></g></svg>